<?xml version="1.0" encoding="utf-8"?>
<svg xmlns="http://www.w3.org/2000/svg"
	xmlns:xlink="http://www.w3.org/1999/xlink"
	width="185px" height="22px" viewBox="0 0 185 22">
<path fillRule="evenodd" d="M 184.71 19.7C 184.71 19.7 178.42 19.7 178.42 19.7 178.42 19.7 176.41 15.33 176.41 15.33 176.41 15.33 174.32 15.33 174.32 15.33 174.32 15.33 174.32 19.7 174.32 19.7 174.32 19.7 168.75 19.7 168.75 19.7 168.75 19.7 168.75 2.87 168.75 2.87 168.75 2.87 176.89 2.87 176.89 2.87 181.45 2.87 184.06 5.06 184.06 8.9 184.06 11.35 183.13 13.17 181.4 14.23 181.4 14.23 184.71 19.7 184.71 19.7ZM 176.89 7.1C 176.89 7.1 174.32 7.1 174.32 7.1 174.32 7.1 174.32 11.11 174.32 11.11 174.32 11.11 176.89 11.11 176.89 11.11 178.09 11.11 178.78 10.36 178.78 9.07 178.78 7.82 178.09 7.1 176.89 7.1ZM 153.15 19.94C 147.8 19.94 143.91 16.29 143.91 11.27 143.91 6.28 147.8 2.71 153.15 2.71 158.5 2.71 162.39 6.31 162.39 11.27 162.39 16.27 158.5 19.94 153.15 19.94ZM 153.22 7.34C 151.28 7.34 149.62 8.99 149.62 11.3 149.62 13.6 151.3 15.31 153.22 15.31 155.14 15.31 156.68 13.6 156.68 11.3 156.68 8.99 155.14 7.34 153.22 7.34ZM 131.98 2.87C 131.98 2.87 137.55 2.87 137.55 2.87 137.55 2.87 137.55 19.7 137.55 19.7 137.55 19.7 131.98 19.7 131.98 19.7 131.98 19.7 131.98 2.87 131.98 2.87ZM 119.46 19.7C 119.46 19.7 117.44 15.33 117.44 15.33 117.44 15.33 115.35 15.33 115.35 15.33 115.35 15.33 115.35 19.7 115.35 19.7 115.35 19.7 109.78 19.7 109.78 19.7 109.78 19.7 109.78 2.87 109.78 2.87 109.78 2.87 117.92 2.87 117.92 2.87 122.48 2.87 125.1 5.06 125.1 8.9 125.1 11.35 124.16 13.17 122.43 14.23 122.43 14.23 125.75 19.7 125.75 19.7 125.75 19.7 119.46 19.7 119.46 19.7ZM 117.92 7.1C 117.92 7.1 115.35 7.1 115.35 7.1 115.35 7.1 115.35 11.11 115.35 11.11 115.35 11.11 117.92 11.11 117.92 11.11 119.12 11.11 119.82 10.36 119.82 9.07 119.82 7.82 119.12 7.1 117.92 7.1ZM 88.42 2.87C 88.42 2.87 102.66 2.87 102.66 2.87 102.66 2.87 102.66 7.1 102.66 7.1 102.66 7.1 93.99 7.1 93.99 7.1 93.99 7.1 93.99 9.16 93.99 9.16 93.99 9.16 101.87 9.16 101.87 9.16 101.87 9.16 101.87 13.39 101.87 13.39 101.87 13.39 93.99 13.39 93.99 13.39 93.99 13.39 93.99 15.47 93.99 15.47 93.99 15.47 102.87 15.47 102.87 15.47 102.87 15.47 102.87 19.7 102.87 19.7 102.87 19.7 88.42 19.7 88.42 19.7 88.42 19.7 88.42 2.87 88.42 2.87ZM 77.51 19.7C 77.51 19.7 71.94 19.7 71.94 19.7 71.94 19.7 71.94 7.27 71.94 7.27 71.94 7.27 67.16 7.27 67.16 7.27 67.16 7.27 67.16 2.87 67.16 2.87 67.16 2.87 82.31 2.87 82.31 2.87 82.31 2.87 82.31 7.27 82.31 7.27 82.31 7.27 77.51 7.27 77.51 7.27 77.51 7.27 77.51 19.7 77.51 19.7ZM 49.76 11.11C 49.76 11.11 49.76 19.7 49.76 19.7 49.76 19.7 44.7 19.7 44.7 19.7 44.7 19.7 44.7 2.87 44.7 2.87 44.7 2.87 49.35 2.87 49.35 2.87 49.35 2.87 56 11.51 56 11.51 56 11.51 56 2.87 56 2.87 56 2.87 61.04 2.87 61.04 2.87 61.04 2.87 61.04 19.7 61.04 19.7 61.04 19.7 56.39 19.7 56.39 19.7 56.39 19.7 49.76 11.11 49.76 11.11ZM 31.93 2.87C 31.93 2.87 37.5 2.87 37.5 2.87 37.5 2.87 37.5 19.7 37.5 19.7 37.5 19.7 31.93 19.7 31.93 19.7 31.93 19.7 31.93 2.87 31.93 2.87ZM 12.06 12.66C 12.06 12.66 21.25 12.66 21.25 12.66 21.25 12.66 21.25 21.84 21.25 21.84 21.25 21.84 12.06 21.84 12.06 21.84 12.06 21.84 12.06 12.66 12.06 12.66ZM 12.06 0.84C 12.06 0.84 21.25 0.84 21.25 0.84 21.25 0.84 21.25 10.03 21.25 10.03 21.25 10.03 12.06 10.03 12.06 10.03 12.06 10.03 12.06 0.84 12.06 0.84ZM 0.25 12.66C 0.25 12.66 9.44 12.66 9.44 12.66 9.44 12.66 9.44 21.84 9.44 21.84 9.44 21.84 0.25 21.84 0.25 21.84 0.25 21.84 0.25 12.66 0.25 12.66ZM 0.25 0.84C 0.25 0.84 9.44 0.84 9.44 0.84 9.44 0.84 9.44 10.03 9.44 10.03 9.44 10.03 0.25 10.03 0.25 10.03 0.25 10.03 0.25 0.84 0.25 0.84Z" fill="rgb(33,33,33)"/></svg>